<?xml version="1.0" standalone="no"?>
<!DOCTYPE svg PUBLIC "-//W3C//DTD SVG 20010904//EN"
 "http://www.w3.org/TR/2001/REC-SVG-20010904/DTD/svg10.dtd">
<svg version="1.0" xmlns="http://www.w3.org/2000/svg"
 width="216.000000pt" height="234.000000pt" viewBox="0 0 216.000000 234.000000"
 preserveAspectRatio="xMidYMid meet">

<g transform="translate(0.000000,234.000000) scale(0.100000,-0.100000)"
fill="#000000" stroke="none">
<path d="M1330 2230 c-74 -12 -144 -36 -207 -71 -50 -28 -52 -28 -58 -8 -4 11
-12 18 -18 16 -22 -7 -106 -127 -124 -176 -24 -70 -43 -71 -107 -7 -77 77
-148 109 -258 114 -74 4 -101 0 -172 -22 -70 -22 -95 -35 -140 -77 -45 -41
-59 -62 -72 -105 -11 -40 -12 -58 -4 -74 6 -12 8 -40 4 -68 -4 -32 1 -75 15
-135 16 -69 18 -92 9 -106 -17 -28 6 -74 63 -125 45 -40 48 -46 39 -71 -11
-29 -3 -50 28 -76 21 -18 23 -75 7 -165 -4 -26 -1 -69 9 -119 9 -43 13 -81 8
-84 -5 -3 -19 -32 -32 -64 -17 -44 -20 -61 -11 -70 6 -6 11 -20 11 -31 0 -11
10 -30 22 -43 l21 -22 -22 -58 c-65 -169 -71 -188 -61 -224 6 -19 23 -48 40
-64 37 -35 40 -72 6 -85 -50 -19 -43 -49 20 -86 58 -34 103 -21 104 29 0 28
49 94 79 106 15 7 40 24 55 38 l29 26 34 -19 c43 -22 59 -59 42 -91 -10 -18
-9 -26 1 -38 35 -42 112 -59 128 -27 5 9 13 47 16 83 6 52 13 72 32 90 26 25
74 101 74 118 0 6 -15 17 -34 25 -43 18 -87 77 -137 182 -37 77 -38 84 -25
110 11 19 12 33 5 46 -8 15 -6 18 13 18 13 0 33 7 45 15 20 14 25 12 72 -19
28 -19 71 -51 94 -70 24 -20 49 -36 55 -36 19 0 21 -16 7 -44 -8 -14 -12 -33
-9 -40 3 -7 -2 -19 -11 -26 -21 -17 -19 -27 9 -45 28 -19 66 -8 108 32 l26 25
77 -27 c133 -46 266 -49 349 -10 38 18 52 32 58 54 2 12 -11 14 -72 12 -100
-3 -196 13 -292 50 -57 22 -82 37 -88 54 -9 25 -74 67 -99 64 -60 -6 -82 2
-99 33 -9 17 -26 41 -37 52 -34 35 -66 87 -60 97 4 5 -8 26 -24 46 -17 21 -42
67 -57 103 -14 36 -35 77 -46 93 l-20 28 39 37 c21 20 49 45 61 54 28 23 28
40 -2 75 l-24 27 24 31 c41 55 65 123 72 208 l7 82 32 -50 c18 -28 48 -66 68
-85 35 -34 36 -34 42 -12 3 12 7 22 8 22 2 0 32 -17 66 -38 103 -62 237 -104
351 -110 53 -2 105 -1 115 2 16 7 15 10 -10 30 l-27 22 57 12 c106 22 227 96
293 179 55 68 74 106 67 133 -9 34 -112 147 -164 181 -42 26 -43 27 -18 33 14
4 25 11 25 17 0 14 -152 84 -225 103 -77 20 -205 27 -275 16z m-443 -335 c0
-8 -4 -12 -9 -9 -4 3 -8 9 -8 15 0 5 4 9 8 9 5 0 9 -7 9 -15z m-457 -60 c28
-11 32 -14 17 -20 -14 -6 -10 -11 23 -27 22 -11 41 -27 41 -37 4 -44 -4 -98
-18 -113 -16 -18 -14 -79 2 -85 6 -2 9 14 8 39 -2 24 0 38 3 31 3 -7 22 5 49
33 49 49 55 51 77 27 29 -33 39 -64 33 -94 -7 -29 -68 -103 -93 -110 -6 -2 30
-4 80 -4 77 0 99 -4 128 -21 19 -12 34 -27 32 -33 -1 -7 2 -10 7 -6 12 7 34
-32 26 -45 -8 -12 -35 -13 -35 -2 0 5 -23 22 -52 37 -43 23 -64 28 -127 29
-80 1 -114 11 -90 27 11 7 11 9 -1 9 -25 0 -112 -45 -164 -84 l-48 -38 -37 30
c-20 16 -49 47 -64 69 -25 35 -27 43 -16 61 11 18 11 31 0 79 -7 32 -16 90
-18 128 -4 57 -3 68 8 58 19 -19 24 -16 26 14 1 28 35 63 41 43 2 -6 10 -3 18
7 8 11 13 13 14 6 0 -19 20 -16 20 2 0 13 7 15 38 9 20 -4 53 -13 72 -19z
m108 -402 c2 -7 -4 -13 -13 -13 -13 0 -10 -8 14 -35 32 -37 33 -55 10 -129 -5
-16 -9 -34 -8 -40 1 -6 9 14 19 44 19 55 19 55 19 18 1 -48 -28 -125 -65 -173
l-28 -37 -11 33 c-10 28 -8 43 7 88 11 29 17 61 15 70 -2 9 -7 -4 -12 -29 -6
-36 -9 -41 -16 -25 -6 15 -8 10 -8 -20 -1 -36 -36 -114 -47 -103 -2 3 7 36 20
75 27 79 35 129 35 222 1 56 3 62 16 51 13 -11 14 -10 9 4 -5 14 -2 17 16 14
13 -1 25 -9 28 -15z m-78 -29 c0 -23 -3 -25 -27 -20 -16 4 -23 3 -16 -2 9 -6
0 -20 -32 -50 -25 -23 -45 -50 -45 -59 0 -16 -1 -16 -16 -1 -14 14 -14 18 1
47 9 18 20 29 27 25 6 -4 8 -3 5 3 -7 11 60 63 81 63 7 0 12 5 12 10 0 6 2 10
5 10 3 0 5 -12 5 -26z m181 -150 c12 -53 11 -60 -8 -96 -12 -21 -17 -35 -11
-32 24 15 -29 -60 -58 -82 -36 -28 -52 -31 -33 -7 10 11 10 14 2 9 -22 -12
-14 8 15 44 34 42 72 104 72 116 -1 5 -7 -2 -14 -16 -13 -23 -14 -21 -9 25 10
113 25 125 44 39z m-203 -1 c-2 -10 -13 -22 -25 -28 -22 -9 -40 -35 -24 -35 4
0 6 -13 3 -30 -5 -37 -32 -41 -32 -5 0 36 25 91 47 104 26 15 35 13 31 -6z
m351 -108 c6 -22 20 -55 32 -74 14 -24 17 -37 10 -44 -8 -8 -11 -7 -12 1 -1 7
-3 17 -4 22 -1 6 -3 15 -4 21 0 5 -6 7 -11 4 -7 -4 -6 -13 1 -26 8 -15 7 -24
-2 -35 -8 -10 -9 -18 -2 -25 7 -7 15 -5 24 9 19 26 60 13 52 -17 -3 -13 2 -23
17 -31 13 -7 19 -17 16 -26 -3 -9 -1 -12 4 -9 6 3 10 0 10 -8 0 -8 7 -18 16
-21 16 -6 11 -26 -7 -26 -6 0 -7 5 -4 10 3 6 1 10 -4 10 -15 0 -14 -13 2 -29
10 -11 9 -12 -3 -6 -8 4 -24 15 -35 24 -14 11 -12 7 4 -12 35 -39 2 -37 -41 2
-27 24 -31 33 -22 47 14 24 32 29 36 11 3 -13 5 -13 16 -1 11 12 10 14 -4 14
-10 0 -14 5 -11 15 4 8 2 17 -4 21 -6 4 -6 11 2 20 10 12 9 13 -5 8 -11 -4
-14 -13 -10 -31 5 -19 3 -24 -7 -21 -8 3 -13 11 -12 17 2 6 -6 11 -17 11 -11
0 -20 4 -20 9 0 4 -12 21 -26 36 -17 19 -24 35 -20 50 3 12 2 25 -1 29 -4 4
-9 28 -10 53 -3 37 0 44 12 39 8 -3 15 -1 15 4 0 6 -4 10 -10 10 -5 0 -10 7
-10 16 0 27 37 -26 49 -71z m-99 19 c0 -30 -25 -92 -47 -116 -13 -14 -18 -16
-25 -6 -6 10 -8 10 -8 -1 0 -8 -8 -20 -17 -27 -17 -13 -17 -14 2 -8 13 4 9 -1
-10 -15 -16 -11 -31 -18 -34 -15 -3 3 1 9 9 14 13 8 13 10 1 10 -8 0 10 23 40
51 30 28 47 47 39 43 -12 -6 -13 -5 -4 7 6 8 16 33 23 57 13 45 31 48 31 6z
m-263 -136 c24 -32 50 -72 58 -90 12 -29 11 -35 -3 -53 -17 -20 -17 -20 6 -1
32 28 40 11 10 -22 -36 -38 -50 -69 -42 -94 5 -16 3 -19 -7 -12 -8 5 -17 9
-21 10 -5 1 -9 2 -10 4 -2 1 -10 3 -18 5 -8 2 -25 7 -37 11 -14 4 -23 2 -23
-4 0 -6 -3 -19 -6 -29 -5 -15 -3 -15 7 2 17 28 17 28 28 21 7 -5 7 -15 -1 -32
-12 -26 -26 -27 -42 -2 -12 20 20 108 40 108 17 0 17 0 -1 75 -15 63 -20 177
-8 189 4 3 11 -1 17 -11 5 -10 29 -44 53 -75z m43 52 c0 -25 -16 -34 -37 -20
-17 11 -17 11 0 6 11 -4 16 -2 12 5 -9 14 3 42 15 34 5 -3 10 -15 10 -25z
m250 -46 c0 -41 -5 -51 -39 -86 -38 -38 -41 -39 -105 -37 -36 1 -66 3 -66 4 0
1 10 10 22 21 21 19 21 19 14 0 -5 -14 -3 -16 6 -9 7 5 39 15 70 22 32 7 61
17 64 23 4 6 3 8 -3 5 -9 -6 -25 -10 -88 -23 l-30 -6 34 26 c35 26 57 34 46
16 -14 -22 3 -8 24 21 l23 31 -26 -17 c-14 -10 -26 -13 -26 -7 0 12 57 62 71
62 5 0 9 -21 9 -46z m-221 -30 c-18 -22 -22 -11 -7 22 10 21 14 24 16 10 2 -9
-2 -24 -9 -32z m312 -7 c-10 -9 -11 -8 -5 6 3 10 9 15 12 12 3 -3 0 -11 -7
-18z m-285 -35 c-13 -14 -18 -14 -28 -3 -10 11 -10 12 0 7 7 -4 12 -1 12 8 0
17 23 28 29 14 2 -6 -4 -17 -13 -26z m215 6 c11 -21 11 -22 -4 -9 -10 7 -17
17 -17 22 0 15 9 10 21 -13z m64 -97 c-6 -5 -28 22 -46 54 -7 11 3 5 20 -14
17 -19 29 -37 26 -40z m-235 2 c0 -5 -14 -16 -30 -25 -35 -20 -41 -7 -8 16 24
17 38 20 38 9z m40 -1 c0 -13 -12 -22 -22 -16 -10 6 -1 24 13 24 5 0 9 -4 9
-8z m14 -25 c-9 -25 -93 -77 -111 -70 -12 5 -14 3 -8 -8 6 -11 5 -11 -5 -2
-17 15 10 59 46 75 39 18 42 -2 4 -34 -19 -17 -26 -26 -15 -20 11 6 35 26 54
46 36 37 46 41 35 13z m42 -22 c-3 -8 -15 -15 -27 -15 l-22 0 24 26 c23 24 37
19 25 -11z m403 -68 c8 -25 10 -26 6 -6 -6 35 16 55 44 39 12 -6 21 -15 21
-21 0 -6 5 -7 10 -4 6 3 14 -4 19 -17 22 -58 204 -119 363 -121 91 -2 96 -3
81 -19 -23 -26 -79 -38 -143 -33 -39 4 -49 3 -35 -4 14 -7 6 -8 -30 -4 -101
11 -235 53 -235 73 0 7 6 7 19 0 11 -5 23 -10 28 -10 4 1 -4 8 -20 16 -22 12
-26 20 -22 42 5 25 5 25 -4 5 -6 -13 -16 -23 -22 -23 -7 0 -18 -8 -26 -17 -10
-14 -10 -10 2 14 19 40 19 47 0 39 -13 -4 -14 1 -9 34 6 37 5 40 -16 40 -17 0
-21 -4 -15 -17 3 -10 7 -22 8 -28 2 -12 -62 -14 -69 -3 -3 4 0 8 5 8 6 0 11 9
11 20 0 11 -4 20 -10 20 -5 0 -10 4 -10 9 0 22 39 -4 49 -32z m-73 -5 c-4 -3
-14 2 -24 12 -16 18 -16 18 6 6 13 -6 21 -14 18 -18z m-550 -10 c23 -14 10
-16 -16 -2 -27 14 -48 -13 -29 -37 13 -17 12 -17 -6 -4 -11 7 -7 1 9 -13 21
-20 26 -30 18 -38 -9 -9 -18 -8 -37 2 -29 16 -67 67 -43 57 21 -7 39 6 41 30
1 23 28 25 63 5z m634 -62 c0 -10 -9 -24 -19 -30 -18 -9 -18 -8 -8 20 13 34
27 39 27 10z m-2 -72 c-2 -6 -14 -15 -26 -19 -20 -8 -21 -6 -12 11 11 21 44
28 38 8z m-470 -36 c29 -14 84 -52 122 -84 69 -58 70 -59 99 -43 33 17 91 10
91 -10 0 -20 -138 -17 -170 3 -14 9 -28 17 -31 17 -17 0 -158 99 -153 106 3 5
-1 9 -9 9 -8 0 -25 9 -38 20 l-24 20 30 -6 c17 -4 54 -18 83 -32z m116 -318
c3 -8 2 -12 -4 -9 -6 3 -10 10 -10 16 0 14 7 11 14 -7z m-357 -36 c-3 -8 -6
-5 -6 6 -1 11 2 17 5 13 3 -3 4 -12 1 -19z"/>
<path d="M263 1728 c-26 -29 -33 -51 -23 -68 5 -9 16 1 34 32 14 25 26 48 26
51 0 14 -17 6 -37 -15z"/>
<path d="M336 1667 c-22 -12 -48 -38 -59 -57 -13 -24 -14 -29 -3 -16 9 11 16
15 16 9 0 -16 49 -73 63 -73 6 0 2 7 -9 15 -17 13 -16 14 13 5 29 -7 35 -5 53
17 20 26 25 59 14 101 -8 28 -37 28 -88 -1z m1 -67 c-1 -11 -4 -20 -8 -20 -10
0 -19 27 -12 34 12 12 22 5 20 -14z m63 -30 c-6 -11 -13 -20 -16 -20 -2 0 0 9
6 20 6 11 13 20 16 20 2 0 0 -9 -6 -20z"/>
<path d="M581 1584 c0 -11 3 -14 6 -6 3 7 2 16 -1 19 -3 4 -6 -2 -5 -13z"/>
<path d="M502 1310 c0 -19 2 -27 5 -17 2 9 2 25 0 35 -3 9 -5 1 -5 -18z"/>
<path d="M511 1192 c9 -14 8 -25 -5 -50 -9 -18 -14 -32 -11 -32 2 0 14 19 26
41 17 34 18 43 7 50 -22 14 -29 10 -17 -9z"/>
<path d="M580 1103 c0 -9 -7 -25 -17 -35 -26 -29 -9 -21 21 11 22 23 25 29 12
34 -11 4 -16 1 -16 -10z"/>
<path d="M747 1159 c7 -9 10 -19 6 -22 -3 -4 -1 -7 5 -7 17 0 15 16 -5 31 -16
12 -17 12 -6 -2z"/>
<path d="M770 1100 c0 -5 5 -10 10 -10 6 0 10 5 10 10 0 6 -4 10 -10 10 -5 0
-10 -4 -10 -10z"/>
<path d="M755 1059 c-4 -6 -5 -12 -2 -15 2 -3 7 2 10 11 7 17 1 20 -8 4z"/>
<path d="M766 1034 c-3 -8 -2 -13 3 -9 5 3 12 -1 14 -7 4 -8 6 -7 6 4 1 23
-15 32 -23 12z"/>
<path d="M390 805 c0 -23 36 -30 44 -8 3 7 -1 10 -11 6 -8 -3 -19 0 -24 8 -7
11 -9 9 -9 -6z"/>
<path d="M1315 595 c22 -8 54 -13 70 -13 19 0 7 5 -30 13 -75 17 -92 17 -40 0z"/>
</g>
</svg>
